# xmcd
#
# Track frame offsets:
# 150
# 18211
# 40220
# 60535
# 79193
#
# Disc length: 1338 seconds
#
#
# Revision: 0
# Processed by: cddbd v1.4PL0 Copyright (c) Steve Scherf et al.
# Submitted via: FreeRIP 2.52 
#
DISCID=32053805
DTITLE=Burning Bulfrog - Demo
DYEAR=2001
DGENRE=Blues
TTITLE0=Dalles
TTITLE1=Cancelled
TTITLE2=Don't Know WhatTo Do
TTITLE3=I Can't Be Satisfied
TTITLE4=Dance Of The Dragon Fly
EXTD=
EXTT0=
EXTT1=
EXTT2=
EXTT3=
EXTT4=
PLAYORDER=
